<svg width="39" height="38" viewBox="0 0 39 38" fill="none" xmlns="http://www.w3.org/2000/svg">
    <path fill-rule="evenodd" clip-rule="evenodd" d="M19.2735 1.07029C19.9794 0.380908 21.5619 0 22.5613 0C24.3878 0 26.2143 0.000666332 28.0408 0.00133266C30.3836 0.00218734 32.7264 0.00304201 35.0692 0.00249058C37.2387 0.00197994 38.998 1.72009 38.9974 3.83883C38.9969 6.12647 38.9978 8.41413 38.9986 10.7018C38.9993 12.4859 39 14.2701 39 16.0543C39 17.0303 38.6124 18.5734 37.9041 19.2651L19.2735 37.46C18.4207 38.4285 17.5803 37.8813 17.0817 37.46L0.642962 21.4057C-0.348709 20.6452 -0.0685636 19.8245 0.642962 19.2651L19.2735 1.07029ZM28.2256 15.1735C30.8557 15.1735 32.9879 13.0911 32.9879 10.5225C32.9879 7.95377 30.8557 5.87145 28.2256 5.87145C25.5954 5.87145 23.4632 7.95377 23.4632 10.5225C23.4632 13.0911 25.5954 15.1735 28.2256 15.1735Z" fill="url(#paint0_linear_51_2046)" />
    <defs>
        <linearGradient id="paint0_linear_51_2046" x1="39" y1="38" x2="1.01282" y2="-0.986847" gradientUnits="userSpaceOnUse">
            <stop stop-color="#FFE3B1" />
            <stop offset="1" stop-color="#FFD58A" />
        </linearGradient>
    </defs>
</svg>