<svg width="20" height="20" viewBox="0 0 20 20" fill="none" xmlns="http://www.w3.org/2000/svg">
    <path d="M18 9H20C20 3.86943 16.1313 0 11 0V2C15.0575 2 18 4.94355 18 9Z" fill="black" />
    <path d="M10.9826 6.04332C13.2062 6.04332 13.9566 6.79381 13.9566 9.01722H15.9392C15.9392 5.60757 14.3926 4.06072 10.9826 4.06072V6.04332ZM13.9566 11.9911C13.7534 11.8065 14.231 11.9826 13.9566 11.9911C13.6822 11.9996 13.1566 11.7943 12.9653 11.9911L9.9913 14.965C9.38226 14.8487 8.2777 14.2395 7.01733 12.9824C5.75696 11.7211 5.14782 10.6133 5.03468 10.0085L8.00865 7.03462C8.20576 6.84339 8.00016 6.3178 8.00865 6.04332C8.01714 5.76884 8.19357 6.24636 8.00865 6.04332L4.04336 1.08682C3.85837 0.88315 3.32666 1.104 3.05204 1.08682C2.77742 1.06965 3.26097 0.907786 3.05204 1.08682L0.0780735 3.06942C-0.104732 3.25287 0.0927914 3.80217 0.0780735 4.06072C0.0622131 4.32504 0.179305 10.108 5.03468 14.965C9.27045 19.1993 14.478 19.9215 15.9392 19.9215C16.1528 19.9215 15.9043 19.9236 15.9392 19.9215C16.1978 19.907 16.748 20.1051 16.9305 19.9215L18.9132 16.9476C19.0924 16.7388 18.9302 17.2222 18.9132 16.9476C18.8962 16.673 19.1167 16.1414 18.9132 15.9563L13.9566 11.9911Z" fill="black" />
</svg>