<svg width="120" height="123" viewBox="0 0 120 123" fill="none" xmlns="http://www.w3.org/2000/svg">
<path d="M66.8702 85.9068C66.6766 85.9068 66.0514 86.0178 65.876 85.9068L54.9397 78.9306C45.406 72.9837 37.5174 64.9626 32.073 55.0121C29.2117 49.7808 27.7009 44.029 27.102 38.0698L26.1078 28.1038C26.0836 27.7768 25.8779 27.3416 26.1078 27.1072C26.3316 26.8789 26.7753 27.0825 27.102 27.1072L36.0498 28.1038C41.8995 28.7145 47.8154 30.1689 52.9513 33.0868C62.7089 38.6388 70.9747 47.283 76.8123 57.0053L83.7717 67.9679C84.0258 68.3936 84.1226 68.6129 83.7717 68.9645L77.8065 74.9441C77.3891 75.3698 76.2355 75.3698 75.8181 74.9441C75.4007 74.5185 75.4007 74.3732 75.8181 73.9475L81.7833 67.9679L74.8239 58.0019C69.1798 48.6004 61.3941 40.447 51.9571 35.08C47.0753 32.304 41.6031 30.683 36.0498 30.097L28.0962 29.1004L29.0904 37.0732C29.6651 42.7425 31.3392 49.0371 34.0614 54.0155C39.3243 63.639 46.7147 71.1817 55.9339 76.9373L66.8702 83.9136L71.8412 77.934C72.2586 77.5083 72.418 77.5083 72.8354 77.934C73.2529 78.3596 73.2529 79.5015 72.8354 79.9272L67.8644 85.9068C67.6587 86.1165 67.1424 85.9068 66.8702 85.9068Z" fill="black"/>
<path d="M45 54C43.2202 54 41.3913 53.4711 40.033 52.0255C37.3223 49.1406 37.3223 44.0509 40.033 41.166C42.7437 38.2811 47.2563 38.2749 49.967 41.166C52.6777 44.0509 52.6777 49.1406 49.967 52.0255C48.6087 53.4711 46.7857 54 45 54ZM45 41.166C43.7471 41.166 42.9741 42.1248 42.0198 43.1405C40.1112 45.1717 40.1112 48.0136 42.0198 50.0511C43.9343 52.0823 46.0716 52.0823 47.9802 50.0511C49.8888 48.0198 49.8888 45.178 47.9802 43.1405C47.0259 42.1248 46.2529 41.166 45 41.166Z" fill="black"/>
<path d="M74.8558 102C74.8558 102 74.8855 102 74.8558 102L67.8936 101.004C62.1492 100.535 57.1955 98.0498 53.9691 93.0371C50.7428 88.0243 50.2537 81.8823 51.9799 76.107C52.0752 75.782 52.6769 75.2299 52.9745 75.1112C53.2781 74.9924 52.7007 74.9361 52.9745 75.1112L66.899 84.0741C67.0478 84.1741 66.8097 83.9116 66.899 84.0741L75.8504 100.008C76.0408 100.365 76.0587 100.66 75.8504 101.004C75.6599 101.323 75.2129 102 74.8558 102ZM53.9691 78.0988C52.9453 82.824 53.3451 87.9847 55.9583 92.0412C58.8275 96.4976 63.7808 98.5998 68.8882 99.0124L72.8666 100.008L65.9044 86.0659L53.9691 78.0988Z" fill="black"/>
<path d="M97.857 78.9504C97.6775 78.9504 97.0286 79.0496 96.8671 78.9504L82.0182 69.9854C81.8626 69.8924 82.1079 70.1466 82.0182 69.9854L73.1088 56.0398C72.9353 55.7546 72.9952 55.3599 73.1088 55.0437C73.2225 54.7275 73.7877 54.1468 74.0987 54.0476C79.6258 52.2497 85.1343 52.6735 89.9376 56.0398C94.7349 59.3999 97.4083 64.9991 97.857 70.9815L98.8469 77.9543C98.8768 78.3573 99.1759 78.7334 98.8469 78.9504C98.6734 79.062 98.0544 78.9504 97.857 78.9504ZM83.0081 67.9932L96.8671 75.9621L95.8771 70.9815C95.4823 65.6624 93.2126 61.0201 88.9476 58.032C85.0655 55.3105 80.5948 54.9673 76.0786 56.0398L83.0081 67.9932Z" fill="black"/>
<path d="M86.7286 90.8904C85.6789 90.8904 83.4239 89.7048 78.8887 85.9559C75.25 82.9532 71.2936 79.4165 68.1089 76.087C65.0894 72.9301 62.8011 70.7634 62.229 69.1787C61.4977 67.1502 62.7077 65.7614 63.209 65.2312C63.7103 64.7071 65.1946 63.4797 67.1289 64.2443C68.6387 64.8424 69.9893 67.0087 73.0088 70.1656C76.1935 73.4952 79.9366 77.2171 82.8087 81.0215C87.9749 87.8594 88.4871 90.0827 87.7086 90.8904C87.4727 91.137 87.1886 90.8904 86.7286 90.8904ZM65.169 66.2181C64.8859 66.2181 65.4756 66.8843 65.169 67.2049C64.709 67.6859 63.9472 67.5074 64.189 68.1918C64.6372 69.4373 66.3643 71.2646 69.0889 74.1132C74.951 80.2421 81.8553 86.2588 84.7686 87.9297C83.1645 84.8776 77.8851 77.2814 72.0288 71.1525C69.3042 68.3039 67.3343 66.6867 66.1489 66.2181C65.9307 66.1317 65.3105 66.2181 65.169 66.2181Z" fill="black"/>
<path d="M28.0197 39.9894C27.5552 39.9894 27.1486 39.4631 27.0235 38.9921C26.8746 38.4318 27.4599 38.1439 28.0197 37.9948C32.4563 36.8324 35.8482 33.4665 36.9856 29.0193C37.1285 28.4589 37.4161 27.8789 37.9818 28.022C38.5416 28.1651 39.1209 28.4589 38.978 29.0193C37.65 34.2057 33.1947 38.6302 28.0197 39.9894C28.109 39.9894 27.9304 40.0132 28.0197 39.9894Z" fill="black"/>
</svg>
