<svg width="120" height="123" viewBox="0 0 120 123" fill="none" xmlns="http://www.w3.org/2000/svg">
<path d="M91 82C90.2363 82 89 81.7876 89 81V49C89 32.3802 76.1161 19 60 19C43.8839 19 31 32.3802 31 49V81C31 81.7876 29.7637 82 29 82C28.2363 82 28 81.7876 28 81V49C28 30.8051 42.3565 16 60 16C77.6435 16 92 30.8051 92 49V81C92 81.7876 91.7637 82 91 82Z" fill="black"/>
<path d="M29 82H22C18.3793 82 15 78.7744 15 75V62C15 58.2256 18.3793 55 22 55H29C29.7488 55 30 55.2194 30 56V81C30 81.7806 29.7488 82 29 82ZM22 58C19.877 58 18 59.7869 18 62V75C18 77.2131 19.877 79 22 79H27V58H22Z" fill="black"/>
<path d="M97 82H90C89.2512 82 89 81.7806 89 81V56C89 55.2194 89.2512 55 90 55H97C100.621 55 104 58.2256 104 62V75C104 78.7744 100.621 82 97 82ZM92 79H97C99.123 79 101 77.2131 101 75V62C101 59.7869 99.123 58 97 58H92V79Z" fill="black"/>
<path d="M55 107C51.6929 107 49 104.307 49 101C49 97.6929 51.6929 95 55 95C58.3071 95 61 97.6929 61 101C61 104.307 58.3071 107 55 107ZM55 98C53.2205 98 52 99.2205 52 101C52 102.78 53.2205 104 55 104C56.7795 104 58 102.78 58 101C58 99.2205 56.7795 98 55 98Z" fill="black"/>
<path d="M51 103H49C37.2376 103 28 92.4322 28 80C28 79.2014 28.2444 79 29 79C29.7556 79 31 79.2014 31 80C31 90.835 38.7488 100 49 100H51C51.7556 100 52 101.201 52 102C52 102.799 51.7556 103 51 103Z" fill="black"/>
<path d="M58 67H45V65C48.7803 62.1994 51.6434 59.3471 53 58C54.3747 56.6352 55 55.2053 55 54C55 53.1315 54.6512 52.4609 54 52C53.3669 51.5214 52.9044 52 52 52C50.0104 52 48.2661 52.582 47 54L45 52C45.7778 51.0783 46.8243 50.4786 48 50C49.1938 49.5037 50.6977 49 52 49C53.8449 49 54.7339 49.0251 56 50C57.2661 50.9749 58 52.2984 58 54C58 55.5244 57.3023 57.4934 56 59C54.6977 60.5066 52.677 62.0148 50 64H58V67Z" fill="black"/>
<path d="M73 67H69V63H61V60L68 49H73V60H75V63H73V67ZM69 60V52L64 60H69Z" fill="black"/>
</svg>
