<svg width="120" height="123" viewBox="0 0 120 123" fill="none" xmlns="http://www.w3.org/2000/svg">
<path d="M28 85C23.0387 85 19 80.9613 19 76C19 71.0387 23.0387 67 28 67C32.9613 67 37 71.0387 37 76C37 80.9613 32.9613 85 28 85ZM28 70C24.4407 70 22 72.4407 22 76C22 79.5593 24.4407 82 28 82C31.5593 82 34 79.5593 34 76C34 72.4407 31.5593 70 28 70Z" fill="#1C1C1C"/>
<path d="M87 85C82.0387 85 78 80.9613 78 76C78 71.0387 82.0387 67 87 67C91.9613 67 96 71.0387 96 76C96 80.9613 91.9613 85 87 85ZM87 70C83.4407 70 81 72.4407 81 76C81 79.5593 83.4407 82 87 82C90.5593 82 93 79.5593 93 76C93 72.4407 90.5593 70 87 70Z" fill="#1C1C1C"/>
<path d="M69 78H36C35.3061 78 35 77.7074 35 77C35 76.2926 35.3061 75 36 75H67V64H13C12.628 64 13 63.6135 13 64V75C13 75.3792 12.6208 75 13 75H20C20.6939 75 21 76.2926 21 77C21 77.7074 20.6939 78 20 78H13C11.2401 78 10 76.7941 10 75V64C10 62.2059 11.2401 61 13 61H69C69.6939 61 70 61.2926 70 62V77C70 77.7074 69.6939 78 69 78V78Z" fill="#1C1C1C"/>
<path d="M98.8541 60H84.9903C84.2883 60 84 59.7201 84 59V44C84 43.2799 84.2883 43 84.9903 43H91.9222C92.4215 43 93.7001 43.5323 93.9027 44L99.8444 58C100.018 58.4009 100.083 58.6214 99.8444 59C99.6128 59.3712 99.2883 60 98.8541 60V60ZM86.9708 57H96.8735L91.9222 46H86.9708V57V57Z" fill="#1C1C1C"/>
<path d="M107 77H95C94.3025 77 94 76.6936 94 76C94 75.3064 94.3025 74 95 74H107C107.28 74 107 74.286 107 74V71C107 70.7211 107.288 70 107 70H105C104.303 70 104 69.6936 104 69V59C104 58.8069 104.079 58.1716 104 58L96 40C95.7771 39.5066 95.5465 39 95 39H71C70.2378 39 70 40.242 70 41V74H79C79.6975 74 80 75.3064 80 76C80 76.6936 79.6975 77 79 77H68C67.3025 77 67 76.6936 67 76V41C67 38.862 68.85 37 71 37H95C96.5388 37 97.3744 37.5985 98 39L106 57C106.223 57.5005 107 58.4494 107 59V68V68C108.675 68 110 69.3339 110 71V74C110 75.6661 108.675 77 107 77V77Z" fill="#1C1C1C"/>
</svg>
