<svg width="120" height="123" viewBox="0 0 120 123" fill="none" xmlns="http://www.w3.org/2000/svg">
<path d="M88 92H32C27.3416 92 24 87.7184 24 83V38C24 33.2816 27.3484 29 32 29H88C92.6584 29 96 33.2816 96 38V83C96 87.7253 92.6516 92 88 92ZM32 31C28.6775 31 26 34.6297 26 38V83C26 86.3772 28.6706 90 32 90H88C91.3294 90 94 86.3772 94 83V38C94 34.6228 91.3294 31 88 31H32Z" fill="black"/>
<path d="M95 70H78C73.0047 70 69 66.0761 69 61V60C69 54.9239 73.0047 51 78 51H95C95.6767 51 96 51.3123 96 52V69C96 69.6877 95.6767 70 95 70ZM78 53C74.3581 53 71 56.2993 71 60V61C71 64.7007 74.3581 68 78 68H94V53H78Z" fill="black"/>
<path d="M80 65C77.518 65 75 63.482 75 61C75 58.518 77.518 56 80 56C82.482 56 84 58.518 84 61C84 63.482 82.482 65 80 65ZM80 58C78.882 58 77 58.882 77 60C77 61.118 78.882 63 80 63C81.118 63 82 61.118 82 60C82 58.882 81.125 58 80 58Z" fill="black"/>
<path d="M27 38H25C24.3984 38 24 37.5511 24 37C24 36.4489 24.3984 36 25 36H27C27.6016 36 28 36.4489 28 37C28 37.5511 27.6016 38 27 38Z" fill="black"/>
<path d="M86 38H82C81.3298 38 81 37.5511 81 37C81 36.4489 81.3298 36 82 36H86C86.6702 36 87 36.4489 87 37C87 37.5511 86.6702 38 86 38ZM74 38H70C69.3298 38 69 37.5511 69 37C69 36.4489 69.3298 36 70 36H74C74.6702 36 75 36.4489 75 37C75 37.5511 74.6702 38 74 38ZM62 38H59C58.3298 38 57 37.5511 57 37C57 36.4489 58.3298 36 59 36H62C62.6702 36 64 36.4489 64 37C64 37.5511 62.6702 38 62 38ZM51 38H47C46.3298 38 46 37.5511 46 37C46 36.4489 46.3298 36 47 36H51C51.6702 36 52 36.4489 52 37C52 37.5511 51.6702 38 51 38ZM39 38H35C34.3298 38 34 37.5511 34 37C34 36.4489 34.3298 36 35 36H39C39.6702 36 40 36.4489 40 37C40 37.5511 39.6702 38 39 38Z" fill="black"/>
<path d="M95 38H93C92.3984 38 92 37.5511 92 37C92 36.4489 92.3984 36 93 36H95C95.6016 36 96 36.4489 96 37C96 37.5511 95.6016 38 95 38Z" fill="black"/>
<path d="M27 85H25C24.3984 85 24 84.5511 24 84C24 83.4489 24.3984 83 25 83H27C27.6016 83 28 83.4489 28 84C28 84.5511 27.6016 85 27 85Z" fill="black"/>
<path d="M86 85H82C81.3298 85 81 84.5511 81 84C81 83.4489 81.3298 83 82 83H86C86.6702 83 87 83.4489 87 84C87 84.5511 86.6702 85 86 85ZM74 85H70C69.3298 85 69 84.5511 69 84C69 83.4489 69.3298 83 70 83H74C74.6702 83 75 83.4489 75 84C75 84.5511 74.6702 85 74 85ZM62 85H59C58.3298 85 57 84.5511 57 84C57 83.4489 58.3298 83 59 83H62C62.6702 83 64 83.4489 64 84C64 84.5511 62.6702 85 62 85ZM51 85H47C46.3298 85 46 84.5511 46 84C46 83.4489 46.3298 83 47 83H51C51.6702 83 52 83.4489 52 84C52 84.5511 51.6702 85 51 85ZM39 85H35C34.3298 85 34 84.5511 34 84C34 83.4489 34.3298 83 35 83H39C39.6702 83 40 83.4489 40 84C40 84.5511 39.6702 85 39 85Z" fill="black"/>
<path d="M95 85H93C92.3984 85 92 84.5511 92 84C92 83.4489 92.3984 83 93 83H95C95.6016 83 96 83.4489 96 84C96 84.5511 95.6016 85 95 85Z" fill="black"/>
</svg>
